<svg xmlns="http://www.w3.org/2000/svg" viewBox="0 0 720 360" font-family="Segoe UI,Helvetica,Arial,sans-serif">
<rect width="720" height="360" rx="12" fill="#ffffff"/>
<text x="40" y="36" font-size="19" font-weight="700" fill="#0f172a">sift methods — R-Judge F1 (the hard benchmark)</text>
<text x="40" y="55" font-size="12.5" fill="#64748b">all ≤100 MB, no LLM. dashed line = LLM judge (0.915)</text>
<line x1="621.8" y1="84" x2="621.8" y2="342" stroke="#0f172a" stroke-dasharray="4 4" opacity="0.55"/>
<text x="621.8" y="78" font-size="11" text-anchor="middle" fill="#0f172a">LLM 0.915</text>
<text x="195" y="108.0" font-size="12.5" text-anchor="end" fill="#0f172a">model2vec_trained</text>
<rect x="210" y="95.0" width="400.5" height="20" rx="4" fill="#38bdf8"/>
<text x="617.5" y="110.0" font-size="12" font-weight="700" fill="#0f172a">0.89</text>
<text x="195" y="142.0" font-size="12.5" text-anchor="end" fill="#0f172a">static_linear</text>
<rect x="210" y="129.0" width="396.0" height="20" rx="4" fill="#38bdf8"/>
<text x="613.0" y="144.0" font-size="12" font-weight="700" fill="#0f172a">0.88</text>
<text x="195" y="176.0" font-size="12.5" text-anchor="end" fill="#0f172a">fusion (deployed)</text>
<rect x="210" y="163.0" width="391.5" height="20" rx="4" fill="#0d9488"/>
<text x="608.5" y="178.0" font-size="12" font-weight="700" fill="#0f172a">0.87</text>
<text x="195" y="210.0" font-size="12.5" text-anchor="end" fill="#0f172a">static_gbt</text>
<rect x="210" y="197.0" width="391.5" height="20" rx="4" fill="#38bdf8"/>
<text x="608.5" y="212.0" font-size="12" font-weight="700" fill="#0f172a">0.87</text>
<text x="195" y="244.0" font-size="12.5" text-anchor="end" fill="#0f172a">anomaly</text>
<rect x="210" y="231.0" width="378.0" height="20" rx="4" fill="#38bdf8"/>
<text x="595.0" y="246.0" font-size="12" font-weight="700" fill="#0f172a">0.84</text>
<text x="195" y="278.0" font-size="12.5" text-anchor="end" fill="#0f172a">setfit (exp.)</text>
<rect x="210" y="265.0" width="373.5" height="20" rx="4" fill="#94a3b8"/>
<text x="590.5" y="280.0" font-size="12" font-weight="700" fill="#0f172a">0.83</text>
<text x="195" y="312.0" font-size="12.5" text-anchor="end" fill="#0f172a">prototypes</text>
<rect x="210" y="299.0" width="310.5" height="20" rx="4" fill="#38bdf8"/>
<text x="527.5" y="314.0" font-size="12" font-weight="700" fill="#0f172a">0.69</text>
</svg>